<svg xmlns="http://www.w3.org/2000/svg" viewBox="0 0 61.75 45.5"><defs><style>.cls-1,.cls-2{fill:none;stroke-linecap:round;stroke-miterlimit:10;}.cls-1{stroke:#f2f2f2;stroke-width:2.5px;}.cls-2{stroke:red;stroke-width:3px;}</style></defs><title>Delivery icon</title><g id="Layer_2" data-name="Layer 2"><g id="Delivery_Icon" data-name="Delivery Icon"><path class="cls-1" d="M17.5,27.25h0l-2,4a1.39,1.39,0,0,0,1.24,2h5a1.39,1.39,0,0,0,1.16-.62l3.59-5.38h6l-4.92,14a2.29,2.29,0,0,0,2.16,3h3.39a2.29,2.29,0,0,0,2-1.22L43.5,27.25h12a5,5,0,0,0,0-10h-12L35,2.13a1.73,1.73,0,0,0-1.51-.88H29a1.73,1.73,0,0,0-1.62,2.33L32.5,17.25h-6l-3.63-5.44a1.25,1.25,0,0,0-1-.56H16.52a1.25,1.25,0,0,0-1.11,1.8l2.1,4.2h0"/><line class="cls-2" x1="4.5" y1="16.25" x2="10.5" y2="16.25"/><line class="cls-2" x1="1.5" y1="28.25" x2="11.5" y2="28.25"/><line class="cls-2" x1="6.5" y1="22.25" x2="18.5" y2="22.25"/></g></g></svg>