<svg xmlns="http://www.w3.org/2000/svg" viewBox="0 0 716.02 109.74"><defs><style>.cls-1{fill:#fff;}.cls-2{fill:#f23f1f;}</style></defs><title>Red Magic Mars Headline</title><g id="Layer_2" data-name="Layer 2"><g id="Layer_2-2" data-name="Layer 2"><path class="cls-1" d="M0,3H25.58A44.56,44.56,0,0,1,35.18,4a23.71,23.71,0,0,1,7,2.58A11.3,11.3,0,0,1,45.67,9.9a7.62,7.62,0,0,1,1.23,4.21v.1a7.49,7.49,0,0,1-1,3.89,10.4,10.4,0,0,1-2.83,3.06,17.43,17.43,0,0,1-4.31,2.26,29.91,29.91,0,0,1-5.54,1.43l15.5,13.29H36.82L22.67,25.9H10V38.14H0ZM24.81,20.43a19.67,19.67,0,0,0,8.64-1.59q3.21-1.59,3.21-4.31v-.1q0-2.87-3.13-4.36a21,21,0,0,0-8.8-1.49H10V20.43Z"/><path class="cls-1" d="M54.37,3H96.84V8.6H64.37v9H93.15v5.57H64.37v9.38H97.25v5.57H54.37Z"/><path class="cls-1" d="M104.39,3h21.4a53.62,53.62,0,0,1,12.34,1.33A35.47,35.47,0,0,1,147.8,8a19.22,19.22,0,0,1,6.27,5.54,11.85,11.85,0,0,1,2.21,6.9v.1a12,12,0,0,1-2.21,6.92,19.08,19.08,0,0,1-6.27,5.57,36,36,0,0,1-9.68,3.71,52.65,52.65,0,0,1-12.34,1.35h-21.4Zm21.32,29.55a35.32,35.32,0,0,0,8.2-.88,21.46,21.46,0,0,0,6.27-2.47,12.55,12.55,0,0,0,4-3.78,8.53,8.53,0,0,0,1.43-4.76v-.1a8.65,8.65,0,0,0-1.43-4.79,12.43,12.43,0,0,0-4-3.8,22,22,0,0,0-6.27-2.49,34.39,34.39,0,0,0-8.2-.91H114.39v24Z"/><path class="cls-1" d="M183.27,3H194l17.47,16.6L228.94,3h10.74V38.14h-10V13L211.56,29.51h-.33l-18-16.45V38.14h-10Z"/><path class="cls-1" d="M271.5,2.78h9.35L306.1,38.14H295.44l-5.82-8.48H262.48l-5.9,8.48H246.24ZM285.93,24.2l-9.92-14-9.84,14Z"/><path class="cls-1" d="M336.61,38.74a50.2,50.2,0,0,1-12.22-1.38A32.61,32.61,0,0,1,315,33.55a19,19,0,0,1-6-5.72,12.87,12.87,0,0,1-2.13-7.15v-.1a12.44,12.44,0,0,1,2.19-7,19.85,19.85,0,0,1,6.15-5.79,34.26,34.26,0,0,1,9.41-3.94,46.21,46.21,0,0,1,11.93-1.46,65.38,65.38,0,0,1,6.85.33,48.47,48.47,0,0,1,5.7.93,38.81,38.81,0,0,1,5,1.48,41.21,41.21,0,0,1,4.55,2l-6.4,4.67q-1.64-.85-3.36-1.56a27.3,27.3,0,0,0-3.61-1.18,33.81,33.81,0,0,0-4.14-.75,41.23,41.23,0,0,0-5-.28,25.78,25.78,0,0,0-7.34,1,21.31,21.31,0,0,0-5.9,2.69,13.48,13.48,0,0,0-3.94,3.95,8.77,8.77,0,0,0-1.43,4.77v.1a9.58,9.58,0,0,0,1.39,5,12.25,12.25,0,0,0,4,4A21.58,21.58,0,0,0,329,32.22a30.79,30.79,0,0,0,8,1,38,38,0,0,0,7.65-.73,28.3,28.3,0,0,0,6.18-1.94V23.9H336.12V18.53h24.44V33.28a48.45,48.45,0,0,1-4.71,2.11,47.11,47.11,0,0,1-5.58,1.76,53.22,53.22,0,0,1-6.44,1.18A58.87,58.87,0,0,1,336.61,38.74Z"/><path class="cls-1" d="M369.32,3h10V38.14h-10Z"/><path class="cls-1" d="M416.56,38.74a45.62,45.62,0,0,1-11.64-1.4,33.7,33.7,0,0,1-9.25-3.84,20,20,0,0,1-6.15-5.74,12.43,12.43,0,0,1-2.23-7.07v-.1a12.48,12.48,0,0,1,2.19-7,20,20,0,0,1,6.15-5.77A33.79,33.79,0,0,1,405,3.85a46.84,46.84,0,0,1,12-1.43,58.76,58.76,0,0,1,7.17.4A43.78,43.78,0,0,1,430.09,4a35.5,35.5,0,0,1,5,1.73,41.23,41.23,0,0,1,4.35,2.21L433,12.46a37.17,37.17,0,0,0-7.3-3.16,29.41,29.41,0,0,0-8.77-1.2,28,28,0,0,0-7.58,1,21.27,21.27,0,0,0-6,2.66,12.84,12.84,0,0,0-3.94,3.94,9,9,0,0,0-1.39,4.82v.1a9.13,9.13,0,0,0,1.39,4.84,13,13,0,0,0,3.94,4,20.82,20.82,0,0,0,6,2.68,28,28,0,0,0,7.58,1,29.26,29.26,0,0,0,9-1.23,40.15,40.15,0,0,0,7.46-3.34l6.48,4a36.65,36.65,0,0,1-4.63,2.58,37.56,37.56,0,0,1-5.21,2,38.87,38.87,0,0,1-6.11,1.25A58,58,0,0,1,416.56,38.74Z"/><path class="cls-1" d="M0,74H21.4a53.62,53.62,0,0,1,12.34,1.33A35.47,35.47,0,0,1,43.42,79a19.21,19.21,0,0,1,6.27,5.54,11.85,11.85,0,0,1,2.21,6.9v.1a12,12,0,0,1-2.21,6.92,19.07,19.07,0,0,1-6.27,5.57,36,36,0,0,1-9.68,3.71,52.65,52.65,0,0,1-12.34,1.35H0Zm21.32,29.55a35.32,35.32,0,0,0,8.2-.88,21.46,21.46,0,0,0,6.27-2.47,12.54,12.54,0,0,0,4-3.78,8.52,8.52,0,0,0,1.44-4.76v-.1a8.65,8.65,0,0,0-1.44-4.79,12.43,12.43,0,0,0-4-3.8,22,22,0,0,0-6.27-2.49,34.39,34.39,0,0,0-8.2-.91H10v24Z"/><path class="cls-1" d="M62.48,74H88.07a44.55,44.55,0,0,1,9.59.93,23.73,23.73,0,0,1,7,2.58,11.29,11.29,0,0,1,3.53,3.36,7.61,7.61,0,0,1,1.23,4.21v.1a7.48,7.48,0,0,1-1,3.89,10.39,10.39,0,0,1-2.83,3.06,17.43,17.43,0,0,1-4.3,2.26,29.92,29.92,0,0,1-5.54,1.43l15.5,13.29H99.3L85.15,96.9H72.49v12.24h-10ZM87.29,91.43a19.67,19.67,0,0,0,8.64-1.59q3.21-1.59,3.21-4.31v-.1q0-2.87-3.13-4.36a21,21,0,0,0-8.8-1.49H72.49V91.43Z"/><path class="cls-1" d="M149.16,109.74A48.16,48.16,0,0,1,137,108.31a33.78,33.78,0,0,1-9.43-3.89,20.08,20.08,0,0,1-6.15-5.74,12.31,12.31,0,0,1-2.21-7v-.1a12.31,12.31,0,0,1,2.21-7,20.07,20.07,0,0,1,6.23-5.77,35.09,35.09,0,0,1,9.51-3.94,47.37,47.37,0,0,1,12.14-1.46,48.16,48.16,0,0,1,12.14,1.43,33.82,33.82,0,0,1,9.43,3.89A20.1,20.1,0,0,1,177,84.49a12.31,12.31,0,0,1,2.21,7v.1a12.3,12.3,0,0,1-2.21,7,20.08,20.08,0,0,1-6.23,5.77,35.1,35.1,0,0,1-9.51,3.94A47.38,47.38,0,0,1,149.16,109.74Zm.16-5.67a29.3,29.3,0,0,0,7.8-1,21,21,0,0,0,6.08-2.66,13.29,13.29,0,0,0,4-3.94,8.85,8.85,0,0,0,1.43-4.82v-.1a9,9,0,0,0-1.43-4.84,13,13,0,0,0-4-4A22.09,22.09,0,0,0,157,80.1a31.33,31.33,0,0,0-15.64,0,21,21,0,0,0-6.08,2.66,13.29,13.29,0,0,0-4,3.94,8.84,8.84,0,0,0-1.43,4.82v.1a9,9,0,0,0,1.43,4.84,13,13,0,0,0,4,4,22,22,0,0,0,6.17,2.68A29,29,0,0,0,149.32,104.08Z"/><path class="cls-1" d="M191.47,74H214.1a45.51,45.51,0,0,1,9.06.83A24.43,24.43,0,0,1,230,77.24a12.61,12.61,0,0,1,4.35,3.71,8.18,8.18,0,0,1,1.52,4.82v.1a8,8,0,0,1-1.81,5.19,14.07,14.07,0,0,1-4.93,3.74,29,29,0,0,1-7.31,2.28,49.08,49.08,0,0,1-9,.78H201.47v11.29h-10Zm21.77,18.26a19.6,19.6,0,0,0,9.09-1.76q3.33-1.76,3.33-4.53v-.1q0-3.12-3.37-4.71a21.53,21.53,0,0,0-9.05-1.59H201.47V92.29Z"/><path class="cls-1" d="M244.6,74h22.63a45.51,45.51,0,0,1,9.06.83,24.43,24.43,0,0,1,6.89,2.38,12.61,12.61,0,0,1,4.35,3.71A8.18,8.18,0,0,1,289,85.77v.1a8,8,0,0,1-1.81,5.19,14.07,14.07,0,0,1-4.93,3.74A29,29,0,0,1,275,97.08a49.08,49.08,0,0,1-9,.78H254.61v11.29h-10Zm21.77,18.26a19.6,19.6,0,0,0,9.09-1.76q3.33-1.76,3.33-4.53v-.1q0-3.12-3.37-4.71a21.53,21.53,0,0,0-9.05-1.59H254.61V92.29Z"/><path class="cls-1" d="M300,74h10v35.11H300Z"/><path class="cls-1" d="M325.37,74h9.33l30.69,24.28V74h10v35.11H367l-31.59-25v25h-10Z"/><path class="cls-1" d="M415.74,109.74a50.2,50.2,0,0,1-12.22-1.38,32.61,32.61,0,0,1-9.39-3.81,19,19,0,0,1-6-5.72A12.87,12.87,0,0,1,386,91.68v-.1a12.44,12.44,0,0,1,2.19-7,19.85,19.85,0,0,1,6.15-5.79,34.26,34.26,0,0,1,9.41-3.94,46.21,46.21,0,0,1,11.93-1.46,65.38,65.38,0,0,1,6.85.33,48.47,48.47,0,0,1,5.7.93,38.81,38.81,0,0,1,5,1.48,41.21,41.21,0,0,1,4.55,2l-6.4,4.67Q429.68,82,428,81.3a27.3,27.3,0,0,0-3.61-1.18,33.81,33.81,0,0,0-4.14-.75,41.23,41.23,0,0,0-5-.28,25.78,25.78,0,0,0-7.34,1,21.31,21.31,0,0,0-5.9,2.69,13.48,13.48,0,0,0-3.94,3.95,8.77,8.77,0,0,0-1.43,4.77v.1a9.58,9.58,0,0,0,1.39,5,12.25,12.25,0,0,0,4,4,21.58,21.58,0,0,0,6.13,2.61,30.79,30.79,0,0,0,8,1,38,38,0,0,0,7.65-.73,28.3,28.3,0,0,0,6.18-1.94V94.9H415.24V89.53h24.44v14.75a48.45,48.45,0,0,1-4.71,2.11,47.11,47.11,0,0,1-5.58,1.76,53.22,53.22,0,0,1-6.44,1.18A58.87,58.87,0,0,1,415.74,109.74Z"/><path class="cls-1" d="M497.57,109.64a57.19,57.19,0,0,1-12.71-1.38A42.51,42.51,0,0,1,473.63,104l6.07-4.41a42.09,42.09,0,0,0,8.45,3.39,36.35,36.35,0,0,0,9.68,1.18,18.83,18.83,0,0,0,7.42-1.2q2.75-1.2,2.75-3.21v-.1a2.76,2.76,0,0,0-.53-1.68,5,5,0,0,0-2-1.38,20.78,20.78,0,0,0-3.95-1.2q-2.51-.55-6.54-1.1-4.6-.65-8.18-1.48a28.62,28.62,0,0,1-6-2,9.89,9.89,0,0,1-3.7-2.88,6.68,6.68,0,0,1-1.27-4.11v-.1a6.58,6.58,0,0,1,1.46-4.14,12,12,0,0,1,4-3.21,24.09,24.09,0,0,1,6.16-2.08,38.44,38.44,0,0,1,7.86-.75,52.18,52.18,0,0,1,11.36,1.13,43,43,0,0,1,9.47,3.29l-5.41,4.67A45.07,45.07,0,0,0,503,79.92a33.2,33.2,0,0,0-7.79-.93,16,16,0,0,0-6.89,1.2q-2.46,1.2-2.46,3v.1a2.91,2.91,0,0,0,.58,1.78,4.86,4.86,0,0,0,2.1,1.4,24.28,24.28,0,0,0,4.19,1.18q2.67.55,6.78,1.15,4.52.7,8,1.56a25,25,0,0,1,5.79,2.08,10.15,10.15,0,0,1,3.49,2.86A6.25,6.25,0,0,1,518,99.06v.1a7.06,7.06,0,0,1-1.5,4.41,12,12,0,0,1-4.19,3.31,24.13,24.13,0,0,1-6.45,2.06A45.28,45.28,0,0,1,497.57,109.64Z"/><path class="cls-1" d="M555.63,109.74a48.16,48.16,0,0,1-12.14-1.43,33.78,33.78,0,0,1-9.43-3.89,20.08,20.08,0,0,1-6.15-5.74,12.31,12.31,0,0,1-2.21-7v-.1a12.31,12.31,0,0,1,2.21-7,20.07,20.07,0,0,1,6.23-5.77,35.09,35.09,0,0,1,9.51-3.94,47.37,47.37,0,0,1,12.14-1.46,48.16,48.16,0,0,1,12.14,1.43,33.82,33.82,0,0,1,9.43,3.89,20.1,20.1,0,0,1,6.15,5.74,12.31,12.31,0,0,1,2.21,7v.1a12.3,12.3,0,0,1-2.21,7,20.08,20.08,0,0,1-6.23,5.77,35.1,35.1,0,0,1-9.51,3.94A47.38,47.38,0,0,1,555.63,109.74Zm.16-5.67a29.3,29.3,0,0,0,7.8-1,21,21,0,0,0,6.08-2.66,13.29,13.29,0,0,0,4-3.94,8.85,8.85,0,0,0,1.43-4.82v-.1a9,9,0,0,0-1.43-4.84,13,13,0,0,0-4-4,22.09,22.09,0,0,0-6.16-2.68,31.33,31.33,0,0,0-15.64,0,21,21,0,0,0-6.08,2.66,13.29,13.29,0,0,0-4,3.94,8.84,8.84,0,0,0-1.43,4.82v.1a9,9,0,0,0,1.43,4.84,13,13,0,0,0,4,4,22,22,0,0,0,6.17,2.68A29,29,0,0,0,555.79,104.08Z"/><path class="cls-1" d="M625.33,109.74a48.16,48.16,0,0,1-12.14-1.43,33.78,33.78,0,0,1-9.43-3.89,20.08,20.08,0,0,1-6.15-5.74,12.31,12.31,0,0,1-2.21-7v-.1a12.31,12.31,0,0,1,2.21-7,20.07,20.07,0,0,1,6.23-5.77,35.09,35.09,0,0,1,9.51-3.94,47.37,47.37,0,0,1,12.14-1.46,48.16,48.16,0,0,1,12.14,1.43,33.82,33.82,0,0,1,9.43,3.89,20.1,20.1,0,0,1,6.15,5.74,12.31,12.31,0,0,1,2.21,7v.1a12.3,12.3,0,0,1-2.21,7,20.08,20.08,0,0,1-6.23,5.77,35.1,35.1,0,0,1-9.51,3.94A47.38,47.38,0,0,1,625.33,109.74Zm.16-5.67a29.3,29.3,0,0,0,7.8-1,21,21,0,0,0,6.08-2.66,13.29,13.29,0,0,0,4-3.94,8.85,8.85,0,0,0,1.43-4.82v-.1a9,9,0,0,0-1.43-4.84,13,13,0,0,0-4-4,22.09,22.09,0,0,0-6.16-2.68,31.33,31.33,0,0,0-15.64,0,21,21,0,0,0-6.08,2.66,13.29,13.29,0,0,0-4,3.94,8.84,8.84,0,0,0-1.43,4.82v.1a9,9,0,0,0,1.43,4.84,13,13,0,0,0,4,4,22,22,0,0,0,6.17,2.68A29,29,0,0,0,625.49,104.08Z"/><path class="cls-1" d="M666,74h9.33L706,98.31V74h10v35.11h-8.43L676,84.16v25H666Z"/><path class="cls-2" d="M582.47,0h-31L543,8.49V38.92h10V26h28V38.92h10V8.49L582.47,0ZM581,19H553V7h28Z"/><path class="cls-2" d="M642.84,20.15,650,13V7l-7.07-7H600V45l10-5V26H637.7l4,4h-.19v9.76H652V29.26ZM610,7h25.93l3.08,3-.07,3L633,19H610Z"/><polygon class="cls-2" points="714.95 26.77 704.2 16 672.95 16 668.45 11.5 672.95 7 706.47 7 708.95 4.52 713.47 0 668.12 0 668.12 0 667.47 0 656.21 11.26 656.45 11.5 667.95 23 677.3 23 677.3 23 699.19 23 702.95 26.77 697.72 32 665.44 32 665.44 32 658.44 39 703.2 39 715.2 27.01 714.95 26.77"/><polygon class="cls-2" points="523.86 0 504.49 25.83 485.12 0 471.95 0.01 471.95 45.01 481.95 40.01 481.95 10.01 500.95 35.01 507.95 35.01 525.95 11.43 525.95 38.92 535.95 38.92 535.95 0.01 523.86 0"/></g></g></svg>