<svg xmlns="http://www.w3.org/2000/svg" viewBox="0 0 76.5 71.75"><defs><style>.cls-1,.cls-2{fill:none;stroke:#ed1c24;stroke-miterlimit:10;stroke-width:2px;}.cls-1{stroke-linecap:round;}.cls-3{fill:#ed1c24;}</style></defs><title>4D icon</title><g id="Layer_2" data-name="Layer 2"><g id="Haptic_Feedback" data-name="Haptic Feedback"><path class="cls-1" d="M53.13,46.54V65.63A5.13,5.13,0,0,1,48,70.75H20.13A5.13,5.13,0,0,1,15,65.63V6.25a5.13,5.13,0,0,1,5.13-5.12H48a5.13,5.13,0,0,1,5.13,5.13v5"/><path class="cls-2" d="M25.56,47.63l8.5-6.56h24.5a2.75,2.75,0,0,0,2.75-2.75V18.25a2.75,2.75,0,0,0-2.75-2.75H28.31a2.75,2.75,0,0,0-2.75,2.75Z"/><line class="cls-2" x1="14" y1="64.51" x2="52.13" y2="64.51"/><line class="cls-1" x1="31.96" y1="67.25" x2="35.96" y2="67.25"/><line class="cls-1" x1="27.67" y1="3.1" x2="40.44" y2="3.1"/><path class="cls-3" d="M38,33.94V31.53H32.5v-2.3l4.9-7.85h3.2v8h1.58v2.11H40.6v2.41Zm-3.37-4.52H38V24.16h-.18Z"/><path class="cls-3" d="M44.14,21.37h4.73a6.26,6.26,0,0,1,2.27.4,4.57,4.57,0,0,1,1.75,1.18,5.39,5.39,0,0,1,1.12,2,8.63,8.63,0,0,1,.4,2.74A8.63,8.63,0,0,1,54,30.4a5.39,5.39,0,0,1-1.12,2,4.57,4.57,0,0,1-1.75,1.18,6.25,6.25,0,0,1-2.27.4H44.14Zm4.73,10.13a2.64,2.64,0,0,0,1.93-.68,3,3,0,0,0,.7-2.2V26.68a3,3,0,0,0-.7-2.2,2.64,2.64,0,0,0-1.93-.68h-2v7.7Z"/><rect class="cls-3" width="4" height="4"/><rect class="cls-3" y="67.63" width="4" height="4"/><rect class="cls-3" x="72.5" width="4" height="4"/><rect class="cls-3" x="72.5" y="67.63" width="4" height="4"/></g></g></svg>