<svg xmlns="http://www.w3.org/2000/svg" viewBox="0 0 100 72.15"><defs><style>.cls-1,.cls-2{fill:none;stroke:#ed1c24;stroke-linecap:round;stroke-width:2px;}.cls-1{stroke-miterlimit:10;}.cls-2{stroke-linejoin:round;}.cls-3{fill:#ed1c24;}</style></defs><title>AI icon</title><g id="Layer_2" data-name="Layer 2"><g id="AI"><rect class="cls-1" x="23.62" y="8.01" width="54.47" height="56.12" rx="2.15" ry="2.15"/><line class="cls-1" x1="31.32" y1="1" x2="31.32" y2="8.01"/><line class="cls-1" x1="40.95" y1="1" x2="40.95" y2="8.01"/><line class="cls-1" x1="50.85" y1="1" x2="50.85" y2="8.01"/><line class="cls-1" x1="60.48" y1="1" x2="60.48" y2="8.01"/><line class="cls-1" x1="70.52" y1="1" x2="70.52" y2="8.01"/><line class="cls-1" x1="70.52" y1="64.13" x2="70.52" y2="71.15"/><line class="cls-1" x1="60.48" y1="64.13" x2="60.48" y2="71.15"/><line class="cls-1" x1="50.85" y1="64.13" x2="50.85" y2="71.15"/><line class="cls-1" x1="40.95" y1="64.13" x2="40.95" y2="71.15"/><line class="cls-1" x1="31.32" y1="64.13" x2="31.32" y2="71.15"/><line class="cls-1" x1="23.62" y1="55.6" x2="14.82" y2="55.6"/><line class="cls-1" x1="23.62" y1="45.98" x2="14.82" y2="45.98"/><line class="cls-1" x1="23.62" y1="36.07" x2="14.82" y2="36.07"/><line class="cls-1" x1="23.62" y1="26.17" x2="14.82" y2="26.17"/><line class="cls-1" x1="23.62" y1="16.27" x2="14.82" y2="16.27"/><line class="cls-1" x1="85.92" y1="55.6" x2="78.08" y2="55.6"/><line class="cls-1" x1="85.92" y1="45.98" x2="78.08" y2="45.98"/><line class="cls-1" x1="85.92" y1="36.07" x2="78.08" y2="36.07"/><line class="cls-1" x1="85.92" y1="26.17" x2="78.08" y2="26.17"/><line class="cls-1" x1="85.92" y1="16.27" x2="78.08" y2="16.27"/><polyline class="cls-2" points="37.55 48.75 45.8 26.19 54.05 48.75"/><line class="cls-2" x1="62.68" y1="26.19" x2="62.68" y2="48.75"/><rect class="cls-3" y="0.02" width="4" height="4"/><rect class="cls-3" y="67.64" width="4" height="4"/><rect class="cls-3" x="96" y="0.02" width="4" height="4"/><rect class="cls-3" x="96" y="67.64" width="4" height="4"/></g></g></svg>