<svg xmlns="http://www.w3.org/2000/svg" viewBox="0 0 72.17 71.63"><defs><style>.cls-1{fill:none;stroke:#ed1c24;stroke-miterlimit:10;stroke-width:2px;}.cls-2{fill:#ed1c24;}</style></defs><title>Button icon</title><g id="Layer_2" data-name="Layer 2"><g id="Capacitive_butoons" data-name="Capacitive butoons"><polygon class="cls-1" points="36.11 56.4 26.32 56.16 19.98 48.71 36.48 14.06 46.27 14.3 52.62 21.75 36.11 56.4"/><polyline class="cls-1" points="32.94 63.05 23.15 62.82 16.8 55.37"/><polyline class="cls-1" points="30.57 68.02 20.78 67.78 14.44 60.33"/><polyline class="cls-1" points="39.06 8.65 48.85 8.88 55.2 16.34"/><polyline class="cls-1" points="41.64 3.23 51.43 3.46 57.78 10.92"/><line class="cls-1" x1="31.78" y1="33.08" x2="40.81" y2="37.38"/><line class="cls-1" x1="29.63" y1="37.59" x2="38.66" y2="41.89"/><line class="cls-1" x1="33.93" y1="28.57" x2="42.96" y2="32.87"/><rect class="cls-2" width="4" height="4"/><rect class="cls-2" y="67.63" width="4" height="4"/><rect class="cls-2" x="68.17" width="4" height="4"/><rect class="cls-2" x="68.17" y="67.63" width="4" height="4"/></g></g></svg>