<svg xmlns="http://www.w3.org/2000/svg" viewBox="0 0 97.75 71.63"><defs><style>.cls-1{fill:none;stroke:#ed1c24;stroke-miterlimit:10;stroke-width:2px;}.cls-2{fill:#ed1c24;}</style></defs><title>Cooling icon</title><g id="Layer_2" data-name="Layer 2"><g id="Cooling"><path class="cls-1" d="M48.89,1.75A33.62,33.62,0,1,0,81.4,26.91,33.71,33.71,0,0,0,48.89,1.75Z"/><line class="cls-1" x1="29.57" y1="32.37" x2="67.74" y2="32.37"/><line class="cls-1" x1="29.57" y1="36.37" x2="67.74" y2="36.37"/><line class="cls-1" x1="29.57" y1="40.37" x2="67.74" y2="40.37"/><path class="cls-2" d="M55.91,55.67h-.63l.48-.84A.88.88,0,0,0,54.24,54l-1,1.71H50.92l3.52-3.52a.87.87,0,0,0-1.24-1.24l-3.52,3.52V52.11l1.71-1a.88.88,0,0,0-.88-1.52l-.84.48v-.64a.87.87,0,1,0-1.75,0v.64l-.84-.48a.88.88,0,1,0-.88,1.52l1.72,1v2.32l-3.52-3.52a.87.87,0,0,0-1.24,1.24l3.52,3.52H44.37l-1-1.71a.88.88,0,1,0-1.52.88l.48.84h-.63a.87.87,0,0,0,0,1.75h.63l-.48.84a.87.87,0,1,0,1.51.87l1-1.71H46.7l-3.52,3.52a.87.87,0,1,0,1.24,1.24l3.52-3.52V61l-1.72,1a.87.87,0,1,0,.87,1.51l.84-.48v.61a.87.87,0,1,0,1.75,0V63l.84.48a.87.87,0,0,0,1.19-.32A.87.87,0,0,0,51.4,62l-1.71-1V58.65l3.52,3.52a.87.87,0,0,0,1.24-1.24l-3.52-3.52h2.33l1,1.71a.88.88,0,0,0,1.51-.88l-.48-.84h.63a.87.87,0,1,0,0-1.75Z"/><path class="cls-1" d="M54.09,20.65c0-2.88-5.22-10.68-5.22-10.68s-5.22,7.8-5.22,10.68a5.22,5.22,0,1,0,10.44,0Z"/><rect class="cls-2" width="4" height="4"/><rect class="cls-2" y="67.63" width="4" height="4"/><rect class="cls-2" x="93.75" width="4" height="4"/><rect class="cls-2" x="93.75" y="67.63" width="4" height="4"/></g></g></svg>