<svg xmlns="http://www.w3.org/2000/svg" viewBox="0 0 100.01 72.81"><defs><style>.cls-1{fill:none;stroke:#ed1c24;stroke-miterlimit:10;stroke-width:2px;}.cls-2{fill:#ed1c24;}</style></defs><title>CPU icon</title><g id="Layer_2" data-name="Layer 2"><g id="CPU"><rect class="cls-1" x="42.59" y="28.72" width="15" height="15"/><line class="cls-1" x1="49.81" y1="48.75" x2="49.81" y2="72.81"/><polyline class="cls-1" points="54.56 48.75 54.56 59.56 59.06 64.06 59.06 69.94"/><polyline class="cls-1" points="59.06 48.75 59.06 55.19 64.76 60.89 64.76 65.06"/><polyline class="cls-1" points="45.45 48.75 45.45 59.56 40.95 64.06 40.95 69.94"/><polyline class="cls-1" points="40.95 48.75 40.95 55.19 35.24 60.89 35.24 65.06"/><line class="cls-1" x1="49.81" y1="24.06" x2="49.81"/><polyline class="cls-1" points="54.56 24.06 54.56 13.25 59.06 8.75 59.06 2.88"/><polyline class="cls-1" points="59.06 24.06 59.06 17.63 64.76 11.92 64.76 7.75"/><polyline class="cls-1" points="45.45 24.06 45.45 13.25 40.95 8.75 40.95 2.88"/><polyline class="cls-1" points="40.95 24.06 40.95 17.63 35.24 11.92 35.24 7.75"/><line class="cls-1" x1="38.1" y1="36.22" x2="14" y2="36.22"/><polyline class="cls-1" points="38.1 31.5 28.69 31.5 19.84 22.65 14.94 22.65"/><polyline class="cls-1" points="37.69 26.69 32.94 26.69 27.25 21 27.25 16.34"/><polyline class="cls-1" points="38.1 41.17 28.69 41.17 19.84 50.02 14.94 50.02"/><polyline class="cls-1" points="37.69 45.98 32.94 45.98 27.25 51.67 27.25 56.33"/><line class="cls-1" x1="61.91" y1="36.22" x2="86.01" y2="36.22"/><polyline class="cls-1" points="61.91 31.5 71.32 31.5 80.17 22.65 85.07 22.65"/><polyline class="cls-1" points="62.32 26.69 67.07 26.69 72.76 21 72.76 16.34"/><polyline class="cls-1" points="61.91 41.17 71.32 41.17 80.17 50.02 85.07 50.02"/><polyline class="cls-1" points="62.32 45.98 67.07 45.98 72.76 51.67 72.76 56.33"/><rect class="cls-2" y="1.19" width="4" height="4"/><rect class="cls-2" y="68.81" width="4" height="4"/><rect class="cls-2" x="96.01" y="1.19" width="4" height="4"/><rect class="cls-2" x="96.01" y="68.81" width="4" height="4"/></g></g></svg>