<svg xmlns="http://www.w3.org/2000/svg" viewBox="0 0 101.5 72.63"><defs><style>.cls-1{fill:none;stroke:#ed1c24;stroke-miterlimit:10;stroke-width:2px;}.cls-2{fill:#ed1c24;}</style></defs><title>Gaming icon</title><g id="Layer_2" data-name="Layer 2"><g id="Gaming"><path class="cls-1" d="M44,48.23a16,16,0,1,0-7.47,6"/><path class="cls-1" d="M64.52,54.17a16,16,0,1,0-7.42-6"/><circle class="cls-1" cx="41.53" cy="52.88" r="4.7"/><circle class="cls-1" cx="59.44" cy="52.88" r="4.7"/><circle class="cls-1" cx="62.8" cy="39.68" r="3.37"/><circle class="cls-1" cx="77.55" cy="39.68" r="3.37"/><circle class="cls-1" cx="70.17" cy="32.93" r="3.37"/><circle class="cls-1" cx="70.17" cy="46.42" r="3.37"/><polygon class="cls-1" points="39.22 36.3 33.43 36.3 33.43 31.08 27.93 31.08 27.93 36.3 22.25 36.3 22.25 42.08 27.93 42.08 27.93 47.01 33.43 47.01 33.43 42.08 39.22 42.08 39.22 36.3"/><path class="cls-1" d="M49.52,22.37h2.28A2.17,2.17,0,0,1,54,24.54v2.28a0,0,0,0,1,0,0H47.35a0,0,0,0,1,0,0V24.54A2.17,2.17,0,0,1,49.52,22.37Z"/><line class="cls-1" x1="56.86" y1="47.79" x2="44.33" y2="47.79"/><line class="cls-1" x1="40.82" y1="26.82" x2="60.38" y2="26.82"/><path class="cls-1" d="M38,55.93l-4,9.52a9.77,9.77,0,0,1-12.81,5.18h0a9.77,9.77,0,0,1-5.18-12.81l3.2-7.54"/><path class="cls-1" d="M63.18,56.14l4,9.52A9.77,9.77,0,0,0,80,70.85h0A9.77,9.77,0,0,0,85.21,58L82,50.5"/><path class="cls-1" d="M50.65,21.31V8.91a7,7,0,0,1,7-7h0a7,7,0,0,1,7,7v3.22a5.55,5.55,0,0,0,5.55,5.55h0a5.55,5.55,0,0,0,5.55-5.55V4.67"/><rect class="cls-2" x="74.69" width="1.97" height="1.97"/><rect class="cls-2" width="4" height="4"/><rect class="cls-2" y="67.63" width="4" height="4"/><rect class="cls-2" x="97.5" width="4" height="4"/><rect class="cls-2" x="97.5" y="67.63" width="4" height="4"/></g></g></svg>