<svg xmlns="http://www.w3.org/2000/svg" viewBox="0 0 139 71.63"><defs><style>.cls-1{fill:#ed1c24;}.cls-2{fill:none;stroke:#ed1c24;stroke-linecap:round;stroke-miterlimit:10;stroke-width:2px;}</style></defs><title>RGB icon</title><g id="Layer_2" data-name="Layer 2"><g id="RGB"><path class="cls-1" d="M54.41,41.89H51.68V29.33h6a4.09,4.09,0,0,1,1.57.29,3.35,3.35,0,0,1,1.2.82,3.71,3.71,0,0,1,.77,1.27,4.75,4.75,0,0,1,.27,1.64,4.29,4.29,0,0,1-.57,2.23A3.25,3.25,0,0,1,59.15,37l2.47,4.93h-3l-2.2-4.61h-2ZM57.29,35a1.39,1.39,0,0,0,1-.31,1.18,1.18,0,0,0,.35-.93v-.79a1.18,1.18,0,0,0-.35-.93,1.39,1.39,0,0,0-1-.31H54.41V35Z"/><path class="cls-1" d="M71.6,39.9h-.09a2.39,2.39,0,0,1-1,1.58,3.63,3.63,0,0,1-2.25.63,4.92,4.92,0,0,1-2-.41,4.62,4.62,0,0,1-1.64-1.22,5.79,5.79,0,0,1-1.1-2,8.94,8.94,0,0,1-.4-2.79,8.75,8.75,0,0,1,.41-2.81,5.78,5.78,0,0,1,1.16-2.05,4.91,4.91,0,0,1,1.79-1.26,6,6,0,0,1,2.32-.43,5.59,5.59,0,0,1,2.92.73A5,5,0,0,1,73.68,32l-2.23,1.28a3.06,3.06,0,0,0-.9-1.25,2.58,2.58,0,0,0-1.71-.51,2.79,2.79,0,0,0-2,.74A3.12,3.12,0,0,0,66,34.6v2a3.13,3.13,0,0,0,.76,2.31,2.77,2.77,0,0,0,2,.75,3.78,3.78,0,0,0,1-.12,2.38,2.38,0,0,0,.79-.36,1.76,1.76,0,0,0,.53-.58,1.65,1.65,0,0,0,.19-.81v-.63H69V34.89h5v7H71.6Z"/><path class="cls-1" d="M76.57,29.33h6.1a3.28,3.28,0,0,1,2.44.88A3.18,3.18,0,0,1,86,32.55a3.49,3.49,0,0,1-.19,1.22,2.35,2.35,0,0,1-.5.83,1.94,1.94,0,0,1-.74.48,3,3,0,0,1-.91.17v.11a3,3,0,0,1,.94.16,2.69,2.69,0,0,1,.91.51,2.83,2.83,0,0,1,.69.91,3,3,0,0,1,.28,1.37,4,4,0,0,1-.24,1.4,3.57,3.57,0,0,1-.67,1.14,3.16,3.16,0,0,1-1,.77,3,3,0,0,1-1.3.28H76.57Zm2.74,5.15H82a1.06,1.06,0,0,0,1.15-1.15v-.54A1.06,1.06,0,0,0,82,31.63H79.31Zm0,5.11h3.15a1.19,1.19,0,0,0,.85-.3,1.09,1.09,0,0,0,.31-.84v-.61a1.1,1.1,0,0,0-.31-.84,1.2,1.2,0,0,0-.85-.3H79.31Z"/><line class="cls-2" x1="30.96" y1="19.98" x2="45.46" y2="19.98"/><line class="cls-2" x1="53.96" y1="19.98" x2="101.46" y2="19.98"/><line class="cls-2" x1="53.96" y1="50.23" x2="76.46" y2="50.23"/><line class="cls-2" x1="89.13" y1="50.23" x2="96.29" y2="50.23"/><line class="cls-2" x1="101.46" y1="50.23" x2="117.13" y2="50.23"/><line class="cls-2" x1="45.46" y1="50.23" x2="22.96" y2="50.23"/><line class="cls-2" x1="95.13" y1="31.23" x2="124.46" y2="31.23"/><line class="cls-2" x1="40.46" y1="38.73" x2="33.21" y2="38.73"/><line class="cls-2" x1="34.29" y1="34.39" x2="14.96" y2="34.39"/><line class="cls-2" x1="95.71" y1="40.56" x2="102.63" y2="40.56"/><rect class="cls-1" x="135" width="4" height="4"/><rect class="cls-1" x="135" y="67.63" width="4" height="4"/><rect class="cls-1" width="4" height="4"/><rect class="cls-1" y="67.63" width="4" height="4"/></g></g></svg>