<svg xmlns="http://www.w3.org/2000/svg" viewBox="0 0 81.75 73.13"><defs><style>.cls-1{fill:none;stroke:#ed1c24;stroke-miterlimit:10;stroke-width:2px;}.cls-2{fill:#ed1c24;}</style></defs><title>Storage icon</title><g id="Layer_2" data-name="Layer 2"><g id="Storage"><path class="cls-1" d="M15.23,9.8V20.35a6.8,6.8,0,0,0,4.83,6.51s12.16,3.59,21.3,3.59,21.09-2.92,21.09-2.92a6.8,6.8,0,0,0,5-6.57V9.8"/><path class="cls-1" d="M15.23,28.44v6.18a6.8,6.8,0,0,0,4.83,6.51s12.16,3.59,21.3,3.59,21.09-2.92,21.09-2.92a6.8,6.8,0,0,0,5-6.57V28.44"/><path class="cls-1" d="M15.23,42.29v6.18A6.8,6.8,0,0,0,20.06,55s12.16,3.59,21.3,3.59,21.09-2.92,21.09-2.92a6.8,6.8,0,0,0,5-6.57V42.29"/><path class="cls-1" d="M15.23,55.86V62a6.8,6.8,0,0,0,4.83,6.51s12.16,3.59,21.3,3.59,21.09-2.92,21.09-2.92a6.8,6.8,0,0,0,5-6.57V55.86"/><ellipse class="cls-1" cx="41.36" cy="8.58" rx="26.13" ry="7.58"/><rect class="cls-2" x="40.23" y="22.43" width="2.61" height="2.61"/><rect class="cls-2" x="40.23" y="36.1" width="2.61" height="2.61"/><rect class="cls-2" x="40.23" y="49.78" width="2.61" height="2.61"/><rect class="cls-2" x="40.23" y="63.54" width="2.61" height="2.61"/><rect class="cls-2" y="1" width="4" height="4"/><rect class="cls-2" y="68.63" width="4" height="4"/><rect class="cls-2" x="77.75" y="3" width="4" height="3.89"/><rect class="cls-2" x="77.75" y="68.74" width="4" height="3.89"/></g></g></svg>