<svg xmlns="http://www.w3.org/2000/svg" viewBox="0 0 106.83 71.63"><defs><style>.cls-1{fill:none;stroke:#ed1c24;stroke-miterlimit:10;stroke-width:2px;}.cls-2{fill:#ed1c24;}</style></defs><title>Surround icon</title><g id="Layer_2" data-name="Layer 2"><g id="Surround"><line class="cls-1" x1="13.43" y1="34.28" x2="92.83" y2="34.28"/><line class="cls-1" x1="24.36" y1="34.28" x2="24.36" y2="28.58"/><line class="cls-1" x1="29.97" y1="34.28" x2="29.97" y2="17.55"/><line class="cls-1" x1="35.76" y1="34.28" x2="35.76" y2="23.25"/><line class="cls-1" x1="41.46" y1="34.28" x2="41.46" y2="28.58"/><line class="cls-1" x1="47.43" y1="34.28" x2="47.43" y2="17.55"/><line class="cls-1" x1="53.13" y1="34.28" x2="53.13"/><line class="cls-1" x1="59.01" y1="34.28" x2="59.01" y2="11.3"/><line class="cls-1" x1="64.71" y1="34.28" x2="64.71" y2="20.95"/><line class="cls-1" x1="70.5" y1="34.28" x2="70.5" y2="27.29"/><line class="cls-1" x1="76.29" y1="34.28" x2="76.29" y2="17.55"/><line class="cls-1" x1="81.89" y1="34.28" x2="81.89" y2="28.58"/><line class="cls-1" x1="24.36" y1="38.5" x2="24.36" y2="43.01"/><line class="cls-1" x1="29.97" y1="38.5" x2="29.97" y2="53.7"/><line class="cls-1" x1="35.76" y1="38.5" x2="35.76" y2="47.88"/><line class="cls-1" x1="41.46" y1="38.5" x2="41.46" y2="43.01"/><line class="cls-1" x1="47.43" y1="38.5" x2="47.43" y2="53.7"/><line class="cls-1" x1="53.13" y1="38.5" x2="53.13" y2="70.98"/><line class="cls-1" x1="59.01" y1="38.5" x2="59.01" y2="59.95"/><line class="cls-1" x1="64.71" y1="38.5" x2="64.71" y2="50.33"/><line class="cls-1" x1="70.5" y1="38.5" x2="70.5" y2="44.33"/><line class="cls-1" x1="76.29" y1="38.5" x2="76.29" y2="53.7"/><line class="cls-1" x1="81.89" y1="38.5" x2="81.89" y2="43.01"/><rect class="cls-2" width="4" height="4"/><rect class="cls-2" y="67.63" width="4" height="4"/><rect class="cls-2" x="102.83" width="4" height="4"/><rect class="cls-2" x="102.83" y="67.63" width="4" height="4"/></g></g></svg>