<svg xmlns="http://www.w3.org/2000/svg" viewBox="0 0 437.79 236"><defs><style>.cls-1{fill:#fff;}.cls-2{fill:#f23f1f;}</style></defs><title>Red Magic Mars headline mobile</title><g id="Layer_2" data-name="Layer 2"><g id="Layer_2-2" data-name="Layer 2"><path class="cls-1" d="M61.46.43H79.77a31.9,31.9,0,0,1,6.87.66,17,17,0,0,1,5,1.85,8.09,8.09,0,0,1,2.52,2.41,5.45,5.45,0,0,1,.88,3v.07a5.36,5.36,0,0,1-.73,2.78,7.44,7.44,0,0,1-2,2.19A12.48,12.48,0,0,1,89.19,15a21.41,21.41,0,0,1-4,1l11.09,9.52H87.81L77.69,16.81H68.62v8.76H61.46ZM79.22,12.89a14.08,14.08,0,0,0,6.18-1.14q2.3-1.14,2.3-3.08V8.6a3.37,3.37,0,0,0-2.24-3.12,15,15,0,0,0-6.3-1.06H68.62v8.47Z"/><path class="cls-1" d="M100.38.43h30.41v4H107.54v6.46h20.6v4h-20.6v6.72h23.54v4h-30.7Z"/><path class="cls-1" d="M136.18.43h15.32a38.39,38.39,0,0,1,8.83,1A25.39,25.39,0,0,1,167.27,4a13.76,13.76,0,0,1,4.49,4,8.48,8.48,0,0,1,1.58,4.94V13a8.56,8.56,0,0,1-1.58,5,13.66,13.66,0,0,1-4.49,4,25.77,25.77,0,0,1-6.93,2.66,37.69,37.69,0,0,1-8.83,1H136.18Zm15.26,21.15a25.29,25.29,0,0,0,5.87-.63,15.36,15.36,0,0,0,4.49-1.77,9,9,0,0,0,2.88-2.71,6.11,6.11,0,0,0,1-3.41V13a6.19,6.19,0,0,0-1-3.43,8.9,8.9,0,0,0-2.88-2.72,15.71,15.71,0,0,0-4.49-1.79,24.62,24.62,0,0,0-5.87-.65h-8.1V21.58Z"/><path class="cls-1" d="M192.65.43h7.69l12.5,11.89L225.35.43H233V25.57h-7.16v-18l-13,11.85h-.23L199.82,7.61v18h-7.16Z"/><path class="cls-1" d="M255.82.25h6.69l18.08,25.32H273l-4.17-6.07H249.36l-4.23,6.07h-7.4Zm10.33,15.33L259,5.53l-7,10.06Z"/><path class="cls-1" d="M302.43,26a35.94,35.94,0,0,1-8.75-1A23.34,23.34,0,0,1,287,22.28a13.63,13.63,0,0,1-4.31-4.09,9.21,9.21,0,0,1-1.53-5.12V13a8.91,8.91,0,0,1,1.57-5,14.21,14.21,0,0,1,4.4-4.15A24.52,24.52,0,0,1,293.83,1a33.08,33.08,0,0,1,8.54-1,46.81,46.81,0,0,1,4.9.23,34.7,34.7,0,0,1,4.08.66A27.78,27.78,0,0,1,314.9,2a29.5,29.5,0,0,1,3.26,1.45l-4.58,3.34q-1.17-.61-2.41-1.11a19.54,19.54,0,0,0-2.58-.84,24.21,24.21,0,0,0-3-.54,29.51,29.51,0,0,0-3.55-.2,18.46,18.46,0,0,0-5.25.72,15.25,15.25,0,0,0-4.23,1.92,9.65,9.65,0,0,0-2.82,2.82,6.28,6.28,0,0,0-1,3.42V13a6.86,6.86,0,0,0,1,3.6,8.77,8.77,0,0,0,2.84,2.84A15.45,15.45,0,0,0,297,21.33a22,22,0,0,0,5.71.68,27.17,27.17,0,0,0,5.47-.52,20.26,20.26,0,0,0,4.42-1.39V15.37H302.08V11.53h17.49V22.09a34.68,34.68,0,0,1-3.38,1.51,33.73,33.73,0,0,1-4,1.26,38.1,38.1,0,0,1-4.61.84A42.14,42.14,0,0,1,302.43,26Z"/><path class="cls-1" d="M325.85.43H333V25.57h-7.16Z"/><path class="cls-1" d="M359.66,26a32.66,32.66,0,0,1-8.34-1,24.12,24.12,0,0,1-6.62-2.75,14.28,14.28,0,0,1-4.4-4.11,8.9,8.9,0,0,1-1.6-5.06V13a8.93,8.93,0,0,1,1.57-5,14.3,14.3,0,0,1,4.4-4.13A24.19,24.19,0,0,1,351.38,1,33.53,33.53,0,0,1,360,0a42.06,42.06,0,0,1,5.14.29,31.34,31.34,0,0,1,4.26.81,25.41,25.41,0,0,1,3.58,1.24A29.52,29.52,0,0,1,376,3.91L371.4,7.18a26.61,26.61,0,0,0-5.22-2.26,21.05,21.05,0,0,0-6.28-.86,20,20,0,0,0-5.43.7,15.22,15.22,0,0,0-4.31,1.9,9.19,9.19,0,0,0-2.82,2.82,6.45,6.45,0,0,0-1,3.45V13a6.54,6.54,0,0,0,1,3.47,9.29,9.29,0,0,0,2.82,2.85,14.91,14.91,0,0,0,4.31,1.92,20,20,0,0,0,5.43.7,21,21,0,0,0,6.46-.88,28.74,28.74,0,0,0,5.34-2.39l4.64,2.87A26.24,26.24,0,0,1,373,23.4a26.89,26.89,0,0,1-3.73,1.4,27.82,27.82,0,0,1-4.37.9A41.54,41.54,0,0,1,359.66,26Z"/><path class="cls-1" d="M58.91,161.44H74.49a39,39,0,0,1,9,1,25.82,25.82,0,0,1,7,2.68,14,14,0,0,1,4.57,4,8.62,8.62,0,0,1,1.61,5v.07a8.7,8.7,0,0,1-1.61,5,13.88,13.88,0,0,1-4.57,4.05,26.2,26.2,0,0,1-7,2.7,38.32,38.32,0,0,1-9,1H58.91Zm15.52,21.5a25.7,25.7,0,0,0,6-.64A15.62,15.62,0,0,0,85,180.5a9.12,9.12,0,0,0,2.92-2.75,6.2,6.2,0,0,0,1-3.46v-.07a6.29,6.29,0,0,0-1-3.48A9,9,0,0,0,85,168a16,16,0,0,0-4.57-1.82,25,25,0,0,0-6-.66H66.19v17.45Z"/><path class="cls-1" d="M104.38,161.44H123a32.42,32.42,0,0,1,7,.68,17.27,17.27,0,0,1,5.07,1.88,8.22,8.22,0,0,1,2.57,2.45,5.54,5.54,0,0,1,.9,3.07v.07a5.44,5.44,0,0,1-.75,2.83,7.56,7.56,0,0,1-2.06,2.23,12.68,12.68,0,0,1-3.13,1.64,21.77,21.77,0,0,1-4,1L139.83,187h-8.65l-10.3-8.91h-9.22V187h-7.28Zm18.06,12.67a14.31,14.31,0,0,0,6.28-1.15q2.33-1.16,2.33-3.13v-.07a3.42,3.42,0,0,0-2.27-3.17,15.27,15.27,0,0,0-6.41-1.08H111.66v8.62Z"/><path class="cls-1" d="M167.46,187.43a35,35,0,0,1-8.83-1,24.58,24.58,0,0,1-6.86-2.83,14.61,14.61,0,0,1-4.48-4.18,9,9,0,0,1-1.61-5.09v-.07a9,9,0,0,1,1.61-5.09,14.6,14.6,0,0,1,4.54-4.2,25.54,25.54,0,0,1,6.92-2.87,34.47,34.47,0,0,1,8.83-1.06,35,35,0,0,1,8.83,1,24.61,24.61,0,0,1,6.86,2.83,14.63,14.63,0,0,1,4.48,4.18,9,9,0,0,1,1.61,5.09v.07a9,9,0,0,1-1.61,5.09,14.61,14.61,0,0,1-4.54,4.2,25.54,25.54,0,0,1-6.92,2.87A34.48,34.48,0,0,1,167.46,187.43Zm.12-4.13a21.32,21.32,0,0,0,5.67-.71,15.27,15.27,0,0,0,4.43-1.93,9.67,9.67,0,0,0,2.88-2.87,6.44,6.44,0,0,0,1-3.5v-.07a6.53,6.53,0,0,0-1-3.52,9.48,9.48,0,0,0-2.91-2.88,16.07,16.07,0,0,0-4.49-2,22.8,22.8,0,0,0-11.38,0,15.3,15.3,0,0,0-4.43,1.93,9.67,9.67,0,0,0-2.88,2.87,6.44,6.44,0,0,0-1,3.5v.07a6.53,6.53,0,0,0,1,3.52,9.47,9.47,0,0,0,2.91,2.88,16,16,0,0,0,4.49,2A21.13,21.13,0,0,0,167.58,183.31Z"/><path class="cls-1" d="M198.25,161.44h16.47a33.12,33.12,0,0,1,6.59.6,17.78,17.78,0,0,1,5,1.73,9.18,9.18,0,0,1,3.16,2.7,6,6,0,0,1,1.1,3.5v.07a5.82,5.82,0,0,1-1.32,3.78,10.24,10.24,0,0,1-3.59,2.72,21.13,21.13,0,0,1-5.32,1.66,35.71,35.71,0,0,1-6.52.57h-8.31V187h-7.28Zm15.84,13.29a14.27,14.27,0,0,0,6.62-1.28q2.43-1.28,2.43-3.3v-.07a3.68,3.68,0,0,0-2.46-3.43,15.67,15.67,0,0,0-6.59-1.15h-8.56v9.24Z"/><path class="cls-1" d="M236.92,161.44h16.47a33.12,33.12,0,0,1,6.59.6,17.78,17.78,0,0,1,5,1.73,9.18,9.18,0,0,1,3.16,2.7,6,6,0,0,1,1.1,3.5v.07a5.82,5.82,0,0,1-1.32,3.78,10.24,10.24,0,0,1-3.59,2.72,21.13,21.13,0,0,1-5.32,1.66,35.71,35.71,0,0,1-6.52.57H244.2V187h-7.28Zm15.84,13.29a14.27,14.27,0,0,0,6.62-1.28q2.43-1.28,2.43-3.3v-.07a3.68,3.68,0,0,0-2.46-3.43,15.67,15.67,0,0,0-6.59-1.15H244.2v9.24Z"/><path class="cls-1" d="M277.2,161.44h7.28V187H277.2Z"/><path class="cls-1" d="M295.69,161.44h6.79l22.33,17.67V161.44h7.28V187H326l-23-18.18V187h-7.28Z"/><path class="cls-1" d="M361.45,187.43a36.53,36.53,0,0,1-8.89-1,23.73,23.73,0,0,1-6.83-2.77,13.85,13.85,0,0,1-4.39-4.16,9.37,9.37,0,0,1-1.55-5.2v-.07a9.05,9.05,0,0,1,1.59-5.07,14.44,14.44,0,0,1,4.48-4.22,24.93,24.93,0,0,1,6.85-2.87,33.63,33.63,0,0,1,8.68-1.06,47.58,47.58,0,0,1,5,.24,35.27,35.27,0,0,1,4.15.68,28.24,28.24,0,0,1,3.61,1.08,30,30,0,0,1,3.31,1.48l-4.65,3.4q-1.19-.62-2.45-1.13a19.87,19.87,0,0,0-2.63-.86,24.61,24.61,0,0,0-3-.55,30,30,0,0,0-3.61-.2,18.76,18.76,0,0,0-5.34.73,15.51,15.51,0,0,0-4.3,2,9.81,9.81,0,0,0-2.86,2.87,6.38,6.38,0,0,0-1,3.47v.07a7,7,0,0,0,1,3.66,8.91,8.91,0,0,0,2.89,2.89,15.71,15.71,0,0,0,4.46,1.9,22.41,22.41,0,0,0,5.8.69,27.62,27.62,0,0,0,5.57-.53,20.59,20.59,0,0,0,4.49-1.41v-4.81H361.1v-3.91h17.78v10.73a35.26,35.26,0,0,1-3.43,1.53,34.28,34.28,0,0,1-4.06,1.28,38.73,38.73,0,0,1-4.68.86A42.84,42.84,0,0,1,361.45,187.43Z"/><path class="cls-1" d="M148.12,235.93a41.62,41.62,0,0,1-9.25-1,30.93,30.93,0,0,1-8.17-3.08l4.42-3.21a30.63,30.63,0,0,0,6.15,2.46,26.45,26.45,0,0,0,7,.86,13.71,13.71,0,0,0,5.4-.88q2-.88,2-2.34v-.07a2,2,0,0,0-.39-1.22,3.63,3.63,0,0,0-1.44-1,15.12,15.12,0,0,0-2.87-.88q-1.83-.4-4.76-.8-3.35-.47-6-1.08a20.83,20.83,0,0,1-4.37-1.46,7.2,7.2,0,0,1-2.69-2.1,4.86,4.86,0,0,1-.93-3v-.07a4.79,4.79,0,0,1,1.06-3,8.73,8.73,0,0,1,2.93-2.34,17.53,17.53,0,0,1,4.49-1.51,28,28,0,0,1,5.72-.55,38,38,0,0,1,8.27.82,31.3,31.3,0,0,1,6.89,2.39l-3.94,3.4a32.8,32.8,0,0,0-5.67-2,24.16,24.16,0,0,0-5.67-.68,11.63,11.63,0,0,0-5,.88q-1.79.88-1.79,2.15v.07A2.12,2.12,0,0,0,140,218a3.54,3.54,0,0,0,1.53,1,17.67,17.67,0,0,0,3.05.86q1.94.4,4.94.84,3.29.51,5.83,1.13a18.21,18.21,0,0,1,4.22,1.52,7.38,7.38,0,0,1,2.54,2.08,4.55,4.55,0,0,1,.87,2.76v.07a5.13,5.13,0,0,1-1.1,3.21,8.72,8.72,0,0,1-3,2.41,17.56,17.56,0,0,1-4.69,1.5A33,33,0,0,1,148.12,235.93Z"/><path class="cls-1" d="M190.37,236a35,35,0,0,1-8.83-1,24.58,24.58,0,0,1-6.86-2.83A14.61,14.61,0,0,1,170.2,228a9,9,0,0,1-1.61-5.09v-.07a9,9,0,0,1,1.61-5.09,14.6,14.6,0,0,1,4.54-4.2,25.54,25.54,0,0,1,6.92-2.87,34.47,34.47,0,0,1,8.83-1.06,35,35,0,0,1,8.83,1,24.61,24.61,0,0,1,6.86,2.83,14.63,14.63,0,0,1,4.48,4.18,9,9,0,0,1,1.61,5.09v.07a9,9,0,0,1-1.61,5.09,14.61,14.61,0,0,1-4.54,4.2,25.54,25.54,0,0,1-6.92,2.87A34.48,34.48,0,0,1,190.37,236Zm.12-4.13a21.32,21.32,0,0,0,5.67-.71,15.27,15.27,0,0,0,4.43-1.93,9.67,9.67,0,0,0,2.88-2.87,6.44,6.44,0,0,0,1-3.5v-.07a6.53,6.53,0,0,0-1-3.52,9.48,9.48,0,0,0-2.91-2.88,16.07,16.07,0,0,0-4.49-2,22.8,22.8,0,0,0-11.38,0,15.3,15.3,0,0,0-4.43,1.93,9.67,9.67,0,0,0-2.88,2.87,6.44,6.44,0,0,0-1,3.5v.07a6.53,6.53,0,0,0,1,3.52,9.47,9.47,0,0,0,2.91,2.88,16,16,0,0,0,4.49,2A21.13,21.13,0,0,0,190.49,231.87Z"/><path class="cls-1" d="M241.09,236a35,35,0,0,1-8.83-1,24.58,24.58,0,0,1-6.86-2.83,14.61,14.61,0,0,1-4.48-4.18,9,9,0,0,1-1.61-5.09v-.07a9,9,0,0,1,1.61-5.09,14.6,14.6,0,0,1,4.54-4.2,25.54,25.54,0,0,1,6.92-2.87,34.47,34.47,0,0,1,8.83-1.06,35,35,0,0,1,8.83,1,24.61,24.61,0,0,1,6.86,2.83,14.63,14.63,0,0,1,4.48,4.18,9,9,0,0,1,1.61,5.09v.07a9,9,0,0,1-1.61,5.09,14.61,14.61,0,0,1-4.54,4.2,25.54,25.54,0,0,1-6.92,2.87A34.48,34.48,0,0,1,241.09,236Zm.12-4.13a21.32,21.32,0,0,0,5.67-.71,15.27,15.27,0,0,0,4.43-1.93,9.67,9.67,0,0,0,2.88-2.87,6.44,6.44,0,0,0,1-3.5v-.07a6.53,6.53,0,0,0-1-3.52,9.48,9.48,0,0,0-2.91-2.88,16.07,16.07,0,0,0-4.49-2,22.8,22.8,0,0,0-11.38,0,15.3,15.3,0,0,0-4.43,1.93,9.67,9.67,0,0,0-2.88,2.87,6.44,6.44,0,0,0-1,3.5v.07a6.53,6.53,0,0,0,1,3.52,9.47,9.47,0,0,0,2.91,2.88,16,16,0,0,0,4.49,2A21.13,21.13,0,0,0,241.21,231.87Z"/><path class="cls-1" d="M270.69,210h6.79l22.33,17.67V210h7.28v25.55H301l-23-18.18v18.18h-7.28Z"/><path class="cls-2" d="M198.91,54.58H143.06L127.79,69.85v54.77h18V101.37h50.39v23.25h18V69.85L198.9,54.58Zm-2.73,34.2H145.78V67.18h50.39Z"/><path class="cls-2" d="M307.57,90.84l12.8-12.94V67.16L307.64,54.58l-3.47,0v0H230.37v81l18-9v-25.2H298.3l7.2,7.2h-.35v17.56H324v-18.9Zm-59.2-23.66H295l5.54,5.48-.12,5.45L289.92,88.78H248.37Z"/><polygon class="cls-2" points="437.35 102.75 418 83.38 361.76 83.38 353.66 75.28 361.76 67.18 422.08 67.18 426.55 62.7 434.68 54.58 353.06 54.58 353.06 54.58 351.89 54.58 331.63 74.84 332.06 75.28 352.76 95.97 369.58 95.97 369.58 95.97 408.98 95.98 415.75 102.75 406.33 112.17 348.23 112.17 348.24 112.17 335.64 124.77 416.2 124.77 437.79 103.19 437.35 102.75"/><polygon class="cls-2" points="93.41 54.58 58.55 101.06 23.69 54.58 0 54.58 0 135.57 18 126.58 18 72.58 52.19 117.58 64.79 117.58 97.19 75.14 97.19 124.63 115.19 124.63 115.19 54.58 93.41 54.58"/></g></g></svg>