<svg xmlns="http://www.w3.org/2000/svg" viewBox="0 0 64.75 36.5"><defs><style>.cls-1,.cls-2,.cls-3{fill:none;stroke-miterlimit:10;}.cls-1,.cls-2{stroke:#f2f2f2;stroke-width:2.5px;}.cls-1,.cls-3{stroke-linecap:round;}.cls-3{stroke:red;stroke-width:3px;}</style></defs><title>Expedited icon</title><g id="Layer_2" data-name="Layer 2"><g id="Expedite_Icon" data-name="Expedite Icon"><path class="cls-1" d="M16.5,26a4.25,4.25,0,0,0,4.25,4.25H25.5"/><path class="cls-1" d="M37.33,30.25h2.92A4.25,4.25,0,0,0,44.5,26V5.5a4.25,4.25,0,0,0-4.25-4.25H20.75A4.25,4.25,0,0,0,16.5,5.5"/><path class="cls-2" d="M59.92,30.25h1.92a1.67,1.67,0,0,0,1.67-1.67V21.19a2.77,2.77,0,0,0-.57-1.69l-6.1-8a3.31,3.31,0,0,0-2.63-1.3H44.5"/><line class="cls-2" x1="39.5" y1="30.25" x2="49" y2="30.25"/><circle class="cls-2" cx="31" cy="29.75" r="5.5"/><circle class="cls-2" cx="54" cy="29.75" r="5.5"/><line class="cls-3" x1="1.5" y1="16.25" x2="27.5" y2="16.25"/><line class="cls-3" x1="9" y1="9.75" x2="19" y2="9.75"/><line class="cls-3" x1="5" y1="21.75" x2="15" y2="21.75"/></g></g></svg>